#!OML:ASF H:\Terrain\Patient Classification 1\Walking\steve\steve.ASF
:FULLY-SPECIFIED
:DEGREES
245
root 8.07905 16.6231 26.3047 4.8009 0.971327 -1.02822
lowerback 2.22896 1.77183 1.84545
upperback -3.11154 2.52938 1.949
thorax -4.46898 1.23247 0.825212
lowerneck -10.6841 -2.46682 -3.56183
upperneck 16.7811 -3.2774 2.99734
head 6.99766 -1.53832 1.25639
rclavicle 6.1996e-015 3.18055e-015
rhumerus -49.6 -27.4953 -64.4433
rradius 22.3118
rwrist 19.2237
rhand 171.516 -68.6812
rfingers 7.12502
rthumb -162.557 -39.4438
lclavicle 6.1996e-015 3.18055e-015
lhumerus -27.5005 -10.2626 92.1207
lradius 48.2664
lwrist 24.4692
lhand -28.2675 -18.8489
lfingers 7.12502
lthumb -1.64425 11.1245
rfemur -26.5687 3.02501 26.3487
rtibia 39.2335
rfoot -15.8297 9.47619
rtoes -5.25346
lfemur -16.1442 4.51218 -18.3759
ltibia 71.9038
lfoot 5.6291 5.57235
ltoes -2.22591
246
root 8.07966 16.6492 26.5166 4.84656 0.716355 -1.2482
lowerback 2.16959 1.87784 1.97006
upperback -3.14094 2.67713 1.99305
thorax -4.46311 1.3026 0.793919
lowerneck -10.7417 -2.56789 -4.0614
upperneck 17.2182 -3.41027 3.40937
head 7.17002 -1.5964 1.45952
rclavicle -4.5969e-016 2.62396e-014
rhumerus -47.6397 -26.1079 -66.5555
rradius 23.7971
rwrist 18.3845
rhand 172.932 -68.6774
rfingers 7.12502
rthumb -161.194 -39.5664
lclavicle -4.5969e-016 2.62396e-014
lhumerus -28.6679 -9.57721 92.4545
lradius 46.4731
lwrist 23.9316
lhand -28.7647 -18.5886
lfingers 7.12502
lthumb -2.12446 11.3805
rfemur -25.4068 3.32677 26.6189
rtibia 38.4617
rfoot -15.9616 9.30298
rtoes -5.73137
lfemur -18.0395 5.1223 -18.1575
ltibia 72.4471
lfoot 4.24755 5.20843
ltoes -5.82075
247
root 8.08906 16.6885 26.738 4.8188 0.704565 -1.561
lowerback 1.8684 1.88319 2.34308
upperback -2.95499 2.68242 2.01352
thorax -4.08306 1.2973 0.620575
lowerneck -11.2035 -2.38881 -3.70342
upperneck 17.7242 -3.18378 3.18146
head 7.39775 -1.47885 1.3441
rclavicle 3.0501e-015 -1.19271e-014
rhumerus -45.5089 -24.5621 -68.8867
rradius 25.1828
rwrist 17.8784
rhand 174.569 -68.8209
rfingers 7.12502
rthumb -159.621 -39.8702
lclavicle 3.0501e-015 -1.19271e-014
lhumerus -29.5831 -9.1581 92.6731
lradius 44.6723
lwrist 23.6854
lhand -29.1381 -18.6445
lfingers 7.12502
lthumb -2.48505 11.3208
rfemur -24.0736 3.16277 26.9848
rtibia 37.6879
rfoot -16.2186 9.51501
rtoes -5.5465
lfemur -19.7195 5.41329 -17.8836
ltibia 72.6926
lfoot 2.53535 4.96541
ltoes -7.75213
248
root 8.09699 16.7173 26.9568 4.82236 0.611197 -2.24475
lowerback 1.52747 1.96202 3.05516
upperback -2.80773 2.79709 2.14547
thorax -3.71107 1.33996 0.369558
lowerneck -11.2059 -1.96983 -2.2913
upperneck 18.0354 -2.58339 1.64172
head 7.4381 -1.23643 0.666493
rclavicle 4.71337e-014 1.27222e-014
rhumerus -43.5512 -22.6838 -71.2525
rradius 26.74
rwrist 15.848
rhand 175.138 -69.0754
rfingers 7.12502
rthumb -159.074 -40.1841
lclavicle 4.71337e-014 1.27222e-014
lhumerus -30.5588 -8.49112 92.8433
lradius 42.8608
lwrist 22.8933
lhand -29.1513 -18.6732
lfingers 7.12502
lthumb -2.49787 11.292
rfemur -22.7635 3.22524 27.7659
rtibia 36.9782
rfoot -16.7472 9.58257
rtoes -5.80962
lfemur -21.4153 5.82232 -17.1618
ltibia 72.8248
lfoot 0.826424 4.42137
ltoes -9.39568
249
root 8.10839 16.7412 27.1758 4.93076 0.596649 -2.4091
lowerback 1.15874 2.04545 3.34713
upperback -2.74861 2.89491 2.09937
thorax -3.42375 1.38409 0.171112
lowerneck -11.0696 -2.20095 -3.04616
upperneck 17.7833 -2.96632 2.72459
head 7.36785 -1.37309 1.10883
rclavicle 2.52612e-014 1.51076e-014
rhumerus -41.8196 -21.1004 -73.1781
rradius 28.391
rwrist 13.4872
rhand 175.181 -69.1355
rfingers 7.12502
rthumb -159.033 -40.2488
lclavicle 2.52612e-014 1.51076e-014
lhumerus -31.6094 -7.87438 92.99
lradius 40.9353
lwrist 22.1081
lhand -29.1285 -19.0326
lfingers 7.12502
lthumb -2.47582 10.9328
rfemur -21.615 2.92796 27.9629
rtibia 36.3887
rfoot -17.2188 9.87075
rtoes -5.97269
lfemur -23.0699 5.98003 -17.146
ltibia 72.6371
lfoot -0.983184 3.84811
ltoes -12.434
250
root 8.11907 16.7688 27.3965 5.00105 0.57909 -2.31728
lowerback 0.888695 2.09869 3.39348
upperback -2.66171 2.9451 1.94973
thorax -3.16981 1.41 0.0024444
lowerneck -11.321 -2.47461 -4.09767
upperneck 18.0088 -3.37707 3.94145
head 7.53865 -1.52576 1.63883
rclavicle -1.52878e-014 -2.78299e-015
rhumerus -40.2807 -19.7704 -74.8129
rradius 30.2059
rwrist 11.6957
rhand 175.578 -68.9287
rfingers 7.12502
rthumb -158.651 -40.0847
lclavicle -1.52878e-014 -2.78299e-015
lhumerus -32.4191 -7.40118 92.992
lradius 38.6848
lwrist 21.6694
lhand -28.8252 -19.7945
lfingers 7.12502
lthumb -2.18291 10.1741
rfemur -20.6122 2.49595 27.8758
rtibia 35.9491
rfoot -17.5514 10.3987
rtoes -4.721
lfemur -24.6161 6.03109 -17.444
ltibia 72.1479
lfoot -2.68775 3.4105
ltoes -14.171
